<?xml version="1.0" encoding="utf-8"?>
<!-- Generator: Adobe Illustrator 21.1.0, SVG Export Plug-In . SVG Version: 6.00 Build 0)  -->
<svg version="1.1" id="Capa_1" xmlns="http://www.w3.org/2000/svg" xmlns:xlink="http://www.w3.org/1999/xlink" x="0px" y="0px"
	 viewBox="0 0 512 512" style="enable-background:new 0 0 512 512;" xml:space="preserve">
<style type="text/css">
	.st0{fill:#C44848;}
</style>
<path class="st0" d="M365.7,0c-80.7,0-146.3,65.6-146.3,146.3c0,30,9.1,58,24.7,81.2L2.7,469c-3.6,3.6-3.6,9.4,0,12.9
	c1.8,1.8,4.1,2.7,6.5,2.7s4.7-0.9,6.5-2.7l39.3-39.3l66.7,66.7c1.8,1.8,4.1,2.7,6.5,2.7c2.3,0,4.7-0.9,6.5-2.7
	c3.6-3.6,3.6-9.4,0-12.9l-66.7-66.7l32.8-32.8l48.4,48.4c1.8,1.8,4.1,2.7,6.5,2.7s4.7-0.9,6.5-2.7c3.6-3.6,3.6-9.4,0-12.9L113.5,384
	l32.8-32.8l66.7,66.7c1.8,1.8,4.1,2.7,6.5,2.7c2.3,0,4.7-0.9,6.5-2.7c3.6-3.6,3.6-9.4,0-12.9l-66.7-66.7l96.2-96.2
	c26.8,30.9,66.3,50.5,110.3,50.5c80.7,0,146.3-65.6,146.3-146.3S446.4,0,365.7,0z M365.7,274.3c-70.6,0-128-57.4-128-128
	s57.4-128,128-128s128,57.4,128,128S436.3,274.3,365.7,274.3z"/>
</svg>
