<?xml version="1.0" encoding="utf-8"?>
<!-- Generator: Adobe Illustrator 21.1.0, SVG Export Plug-In . SVG Version: 6.00 Build 0)  -->
<svg version="1.1" id="Capa_1" xmlns="http://www.w3.org/2000/svg" xmlns:xlink="http://www.w3.org/1999/xlink" x="0px" y="0px"
	 viewBox="0 0 512 512" style="enable-background:new 0 0 512 512;" xml:space="preserve">
<style type="text/css">
	.st0{fill:#C44848;}
</style>
<g>
	<g>
		<path class="st0" d="M414.5,355.1c-2,0-4.1-0.7-5.6-2.2l-95-89.1c-3.3-3.1-3.5-8.3-0.4-11.7c3.1-3.4,8.3-3.5,11.7-0.4l95,89.1
			c3.3,3.1,3.5,8.3,0.4,11.7C418.9,354.2,416.8,355.1,414.5,355.1z"/>
		<path class="st0" d="M97.4,355.1c-2.2,0-4.4-0.9-6-2.6c-3.1-3.3-3-8.6,0.4-11.7l95-89.1c3.3-3.1,8.6-3,11.7,0.4
			c3.1,3.3,3,8.6-0.4,11.7l-95,89.1C101.5,354.4,99.5,355.1,97.4,355.1z"/>
	</g>
	<path class="st0" d="M470.7,438H41.3C18.5,438,0,419.5,0,396.7V115.3C0,92.5,18.5,74,41.3,74h429.5c22.8,0,41.3,18.5,41.3,41.3
		v281.4C512,419.5,493.5,438,470.7,438z M41.3,90.5c-13.7,0-24.8,11.1-24.8,24.8v281.4c0,13.7,11.1,24.8,24.8,24.8h429.5
		c13.7,0,24.8-11.1,24.8-24.8V115.3c0-13.7-11.1-24.8-24.8-24.8H41.3z"/>
	<path class="st0" d="M256,297.5c-11,0-22-3.6-30.3-10.9l-212-184.9c-3.4-3-3.8-8.2-0.8-11.7c3-3.4,8.2-3.7,11.7-0.8l212,184.9
		c10.5,9.2,28.4,9.2,38.9,0L487.2,89.5c3.4-3,8.6-2.7,11.7,0.8c3,3.5,2.6,8.7-0.8,11.7L286.3,286.5C277.9,293.8,267,297.5,256,297.5
		z"/>
</g>
</svg>
