<?xml version="1.0" encoding="utf-8"?>
<!-- Generator: Adobe Illustrator 21.1.0, SVG Export Plug-In . SVG Version: 6.00 Build 0)  -->
<svg version="1.1" id="Capa_1" xmlns="http://www.w3.org/2000/svg" xmlns:xlink="http://www.w3.org/1999/xlink" x="0px" y="0px"
	 viewBox="0 0 512 512" style="enable-background:new 0 0 512 512;" xml:space="preserve">
<style type="text/css">
	.st0{fill:#C44848;}
</style>
<path class="st0" d="M409.7,366l-81.5-40.8c-7.7-3.8-12.5-11.6-12.5-20.2v-28.9c2-2.4,4-5.1,6.1-8.1c10.6-14.9,19-31.6,25.2-49.5
	c12-5.5,19.9-17.4,19.9-30.9v-34.1c0-8.2-3.1-16.2-8.5-22.4V85.8c0.5-4.7,2.4-32.6-17.9-55.7C323,10.1,294.6,0,256,0
	s-67,10.1-84.5,30.1c-20.2,23-18.3,51-17.9,55.7v45.4c-5.5,6.2-8.5,14.2-8.5,22.4v34.1c0,10.4,4.7,20.1,12.8,26.5
	c7.8,31,24.2,54.3,29.9,61.8v28.2c0,8.3-4.5,15.8-11.8,19.8l-76.1,41.5c-24.8,13.5-40.1,39.4-40.1,67.6v27.6
	c0,40.5,128.4,51.2,196.3,51.2s196.3-10.7,196.3-51.2v-26C452.3,405.5,436,379.1,409.7,366z M435.2,460.8
	c0,11.6-63.2,34.1-179.2,34.1S76.8,472.4,76.8,460.8v-27.6c0-21.9,12-42.1,31.2-52.6l76.1-41.5c12.7-7,20.7-20.3,20.7-34.8V270
	l-2-2.4c-0.2-0.2-21.1-25.5-29.1-60.3l-0.8-3.4L170,202c-4.9-3.2-7.9-8.5-7.9-14.3v-34.1c0-4.8,2-9.3,5.7-12.6l2.8-2.5V85.3
	l-0.1-1.1c0-0.2-2.9-23.9,13.7-42.8c14.1-16.1,38.3-24.3,71.7-24.3c33.3,0,57.4,8.1,71.6,24.1c16.6,18.8,13.9,42.8,13.8,43
	l-0.1,54.3l2.8,2.5c3.7,3.3,5.7,7.8,5.7,12.6v34.1c0,7.4-4.9,14-12.1,16.2l-4.2,1.3l-1.4,4.2c-5.7,17.8-13.8,34.2-24.2,48.8
	c-2.5,3.6-5,6.8-7.1,9.2l-2.1,2.4V305c0,15.1,8.4,28.7,21.9,35.4l81.5,40.8c20.4,10.2,33.1,30.7,33.1,53.6V460.8z"/>
</svg>
