<?xml version="1.0" encoding="UTF-8"?>
<svg width="13px" height="13px" viewBox="0 0 13 13" version="1.1" xmlns="http://www.w3.org/2000/svg" xmlns:xlink="http://www.w3.org/1999/xlink">
    <!-- Generator: Sketch 51 (57462) - http://www.bohemiancoding.com/sketch -->
    <title>whatsapp</title>
    <desc>Created with Sketch.</desc>
    <defs></defs>
    <g id="DRIVER" stroke="none" stroke-width="1" fill="none" fill-rule="evenodd">
        <g id="main_driver" transform="translate(-654.000000, -2385.000000)">
            <rect fill="#FFFFFF" x="0" y="0" width="1440" height="2523"></rect>
            <g id="footer" transform="translate(-1.000000, 2303.000000)" fill="#8F4242" fill-rule="nonzero">
                <g id="whatsapp" transform="translate(655.000000, 82.000000)">
                    <path d="M6.5,0 C2.91575,0 0,2.91575 0,6.5 C0,7.72275 0.33975,8.90975 0.98425,9.9405 C0.7275,10.84 0.26375,12.5415 0.25875,12.55925 C0.23475,12.64725 0.2605,12.74125 0.32625,12.8045 C0.392,12.86775 0.487,12.89025 0.5735,12.86375 L3.15,12.07125 C4.15925,12.67925 5.315,13 6.5,13 C10.08425,13 13,10.08425 13,6.5 C13,2.91575 10.08425,0 6.5,0 Z M6.5,12.5 C5.37025,12.5 4.26975,12.18425 3.31725,11.58725 C3.277,11.562 3.23075,11.54925 3.1845,11.54925 C3.15975,11.54925 3.135,11.553 3.111,11.56025 L0.86125,12.25275 C1.0265,11.6495 1.3235,10.5705 1.49575,9.97025 C1.51575,9.90075 1.5045,9.82575 1.46525,9.765 C0.83375,8.79325 0.5,7.66425 0.5,6.5 C0.5,3.19175 3.19175,0.5 6.5,0.5 C9.80825,0.5 12.5,3.19175 12.5,6.5 C12.5,9.80825 9.80825,12.5 6.5,12.5 Z" id="Shape"></path>
                    <path d="M10.0461311,7.39014984 C9.65109719,7.18176001 9.31469777,6.97276026 9.06924603,6.8202799 C8.88178681,6.70398821 8.74632826,6.62002235 8.64703479,6.57265179 C8.36948387,6.44111206 8.15912723,6.53402343 8.07909327,6.61087353 C8.06903553,6.62042897 8.06004776,6.63079763 8.05234395,6.64177622 C7.7640933,7.05265997 7.3876769,7.4456527 7.27746971,7.46679664 C7.15014296,7.44788908 6.55416815,7.12605385 5.96183126,6.65743087 C5.35708268,6.17864253 4.97660038,5.7201849 4.9207478,5.40790512 C5.30871991,5.02853397 5.44845835,4.78985137 5.44845835,4.51823302 C5.44845835,4.23827907 4.76110787,3.06946626 4.63677704,2.9513448 C4.51201822,2.83302004 4.23104339,2.81451909 3.80155634,2.89584195 C3.76025539,2.90377093 3.72216436,2.92308511 3.69220513,2.9513448 C3.64020445,3.00074844 2.42343148,4.17932 3.00164473,5.60775605 C3.63635255,7.17545749 5.26549301,8.99769949 7.34252405,9.29371471 C7.57856003,9.32726039 7.79983039,9.34393157 8.00697711,9.34393157 C9.22888596,9.34393157 9.95004757,8.75983013 10.1531284,7.60118267 C10.168322,7.51640359 10.1253091,7.43182781 10.0461311,7.39014984 Z M7.40608043,8.89157316 C5.20964044,8.57868345 3.82616571,6.51125303 3.40117255,5.46178151 C2.9796033,4.42084889 3.75704547,3.49275175 3.9522085,3.28293877 C4.11099245,3.25732206 4.27812219,3.24654679 4.34788441,3.25691545 C4.49361469,3.44944732 4.99821383,4.35518068 5.02046926,4.51823302 C5.02046926,4.62496927 4.98387619,4.7735868 4.5481833,5.18772347 C4.50795233,5.22574191 4.4854829,5.27738192 4.4854829,5.33146163 C4.4854829,6.39597787 6.84883864,7.87280102 7.26741197,7.87280102 C7.63141669,7.87280102 8.10605659,7.29154588 8.37633169,6.91278465 C8.3919533,6.91339457 8.41827462,6.91847725 8.45572367,6.93636828 C8.53276171,6.97316688 8.6662943,7.05591289 8.835136,7.16081938 C9.05811831,7.29927155 9.35428676,7.48306121 9.70395384,7.67356001 C9.54516989,8.39936655 9.10134521,9.13350867 7.40608043,8.89157316 Z" id="Shape"></path>
                </g>
            </g>
        </g>
    </g>
</svg>